<?xml version="1.0" encoding="iso-8859-1"?>
<!-- Uploaded to: SVG Repo, www.svgrepo.com, Generator: SVG Repo Mixer Tools -->
<svg height="800px" width="800px" version="1.1" id="Layer_1" xmlns="http://www.w3.org/2000/svg" xmlns:xlink="http://www.w3.org/1999/xlink" 
	 viewBox="0 0 487.2 487.2" xml:space="preserve">
<path style="fill:#FF7A17;" d="M230.8,468.8c0,9.6-8,17.6-17.6,17.6h-148c-9.6,0-17.6-8-17.6-17.6l0,0c0-9.6,8-17.6,17.6-17.6H214
	C222.8,452,230.8,459.2,230.8,468.8L230.8,468.8z"/>
<path style="fill:#F74D19;" d="M213.2,452c9.6,0,17.6,8,17.6,17.6l0,0c0,9.6-8,17.6-17.6,17.6h-148"/>
<path style="fill:#FF7A17;" d="M230.8,393.6c0,9.6-8,17.6-17.6,17.6h-148c-9.6,0-17.6-8-17.6-17.6l0,0c0-9.6,8-17.6,17.6-17.6H214
	C222.8,376.8,230.8,384,230.8,393.6L230.8,393.6z"/>
<path style="fill:#F74D19;" d="M213.2,376.8c9.6,0,17.6,8,17.6,17.6l0,0c0,9.6-8,17.6-17.6,17.6h-148"/>
<path style="fill:#05D8DD;" d="M230.8,318.4c0,9.6-8,17.6-17.6,17.6h-148c-9.6,0-17.6-8-17.6-17.6l0,0c0-9.6,8-17.6,17.6-17.6H214
	C222.8,300.8,230.8,308.8,230.8,318.4L230.8,318.4z"/>
<path style="fill:#00B3C6;" d="M213.2,300.8c9.6,0,17.6,8,17.6,17.6l0,0c0,9.6-8,17.6-17.6,17.6h-148"/>
<path style="fill:#05D8DD;" d="M230.8,243.2c0,9.6-8,17.6-17.6,17.6h-148c-9.6,0-17.6-8-17.6-17.6l0,0c0-9.6,8-17.6,17.6-17.6H214
	C222.8,225.6,230.8,233.6,230.8,243.2L230.8,243.2z"/>
<path style="fill:#00B3C6;" d="M213.2,225.6c9.6,0,17.6,8,17.6,17.6l0,0c0,9.6-8,17.6-17.6,17.6h-148"/>
<path style="fill:#EF0770;" d="M230.8,168c0,9.6-8,17.6-17.6,17.6h-148c-9.6,0-17.6-8-17.6-17.6l0,0c0-9.6,8-17.6,17.6-17.6H214
	C222.8,150.4,230.8,158.4,230.8,168L230.8,168z"/>
<path style="fill:#BF0261;" d="M213.2,150.4c9.6,0,17.6,8,17.6,17.6l0,0c0,9.6-8,17.6-17.6,17.6h-148"/>
<path style="fill:#EF0770;" d="M230.8,92.8c0,9.6-8,17.6-17.6,17.6h-148c-9.6,0-17.6-8-17.6-17.6l0,0c0-9.6,8-17.6,17.6-17.6H214
	C222.8,75.2,230.8,83.2,230.8,92.8L230.8,92.8z"/>
<path style="fill:#BF0261;" d="M213.2,75.2c9.6,0,17.6,8,17.6,17.6l0,0c0,9.6-8,17.6-17.6,17.6h-148"/>
<path style="fill:#EF0770;" d="M230.8,17.6c0,9.6-8,17.6-17.6,17.6h-148c-9.6,0-17.6-8-17.6-17.6l0,0C47.6,8,55.6,0,65.2,0H214
	C222.8,0,230.8,8,230.8,17.6L230.8,17.6z"/>
<path style="fill:#BF0261;" d="M213.2,0c9.6,0,17.6,8,17.6,17.6l0,0c0,9.6-8,17.6-17.6,17.6h-148"/>
<path style="fill:#FF7A17;" d="M439.6,468.8c0,9.6-8,17.6-17.6,17.6H274c-9.6,0-17.6-8-17.6-17.6l0,0c0-9.6,8-17.6,17.6-17.6h148.8
	C431.6,452,439.6,459.2,439.6,468.8L439.6,468.8z"/>
<path style="fill:#F74D19;" d="M422,452c9.6,0,17.6,8,17.6,17.6l0,0c0,9.6-8,17.6-17.6,17.6H274"/>
<path style="fill:#FF7A17;" d="M439.6,393.6c0,9.6-8,17.6-17.6,17.6H274c-9.6,0-17.6-8-17.6-17.6l0,0c0-9.6,8-17.6,17.6-17.6h148.8
	C431.6,376.8,439.6,384,439.6,393.6L439.6,393.6z"/>
<path style="fill:#F74D19;" d="M422,376.8c9.6,0,17.6,8,17.6,17.6l0,0c0,9.6-8,17.6-17.6,17.6H274"/>
<path style="fill:#05D8DD;" d="M439.6,318.4c0,9.6-8,17.6-17.6,17.6H274c-9.6,0-17.6-8-17.6-17.6l0,0c0-9.6,8-17.6,17.6-17.6h148.8
	C431.6,300.8,439.6,308.8,439.6,318.4L439.6,318.4z"/>
<path style="fill:#00B3C6;" d="M422,300.8c9.6,0,17.6,8,17.6,17.6l0,0c0,9.6-8,17.6-17.6,17.6H274"/>
<path style="fill:#05D8DD;" d="M439.6,243.2c0,9.6-8,17.6-17.6,17.6H274c-9.6,0-17.6-8-17.6-17.6l0,0c0-9.6,8-17.6,17.6-17.6h148.8
	C431.6,225.6,439.6,233.6,439.6,243.2L439.6,243.2z"/>
<path style="fill:#00B3C6;" d="M422,225.6c9.6,0,17.6,8,17.6,17.6l0,0c0,9.6-8,17.6-17.6,17.6H274"/>
<path style="fill:#EF0770;" d="M439.6,168c0,9.6-8,17.6-17.6,17.6H274c-9.6,0-17.6-8-17.6-17.6l0,0c0-9.6,8-17.6,17.6-17.6h148.8
	C431.6,150.4,439.6,158.4,439.6,168L439.6,168z"/>
<path style="fill:#BF0261;" d="M422,150.4c9.6,0,17.6,8,17.6,17.6l0,0c0,9.6-8,17.6-17.6,17.6H274"/>
</svg>